<?xml version="1.0" encoding="utf-8"?>
<!-- Generator: Adobe Illustrator 21.1.0, SVG Export Plug-In . SVG Version: 6.00 Build 0)  -->
<svg version="1.1" id="图层_1" xmlns="http://www.w3.org/2000/svg" xmlns:xlink="http://www.w3.org/1999/xlink" x="0px" y="0px"
	 viewBox="0 0 800 800" style="enable-background:new 0 0 800 800;" xml:space="preserve">
<style type="text/css">
	.st0{fill:#4172E5;}
</style>
<g>
	<g>
		<path class="st0" d="M373.9,550c-8.8,0-17.3-3.5-23.6-9.8L161.7,351.7c-13-13-13-34.1,0-47.1s34.1-13,47.1,0l164.8,164.8
			L743.9,93.3c12.9-13.1,34-13.3,47.1-0.4s13.3,34,0.4,47.1L397.6,540c-6.2,6.3-14.7,9.9-23.6,9.9C374,550,373.9,550,373.9,550z"/>
	</g>
	<g>
		<path class="st0" d="M701,400c0,186.5-162.1,335.9-352.9,314.6c-145-16.2-262.3-133.4-278.4-278.4
			C48.4,245.5,197.8,83.3,384.3,83.3c67.7,0,130.5,21.4,182,57.8c12.5,8.9,29.6,7.4,40.3-3.5l2.8-2.9c13.4-13.6,11.9-36.2-3.6-47.2
			c-75.3-53.7-171-80.9-273.1-67.4C159.2,42.9,21.3,184.9,3.1,359c-26,248.7,187.5,456.3,437.7,420.3
			c159.5-22.9,289.4-147.1,319.7-305.4c9.1-47.5,9.1-93.7,1.7-137.5c-4.3-25.5-35.3-35.9-53.4-17.4l-3.4,3.4
			c-7.2,7.3-10.1,17.6-8.5,27.8C699.6,366.4,701,383,701,400z"/>
	</g>
</g>
</svg>
