<?xml version="1.0" encoding="utf-8"?>
<!-- Generator: Adobe Illustrator 21.0.0, SVG Export Plug-In . SVG Version: 6.00 Build 0)  -->
<svg version="1.1" id="图层_1" xmlns="http://www.w3.org/2000/svg" xmlns:xlink="http://www.w3.org/1999/xlink" x="0px" y="0px"
	 viewBox="0 0 610.8 610.5" style="enable-background:new 0 0 610.8 610.5;" xml:space="preserve">
<style type="text/css">
	.st0{fill:#FFFFFF;}
	.st1{fill:#2474BB;}
</style>
<path class="st0" d="M611,611H0V0h611V611z M5,606h601V5H5V606z"/>
<polygon class="st1" points="16.4,66 0,66 0,0 66,0 66,16.4 16.4,16.4 "/>
<polygon class="st1" points="66,611 0,611 0,545 16.4,545 16.4,594.6 66,594.6 "/>
<polygon class="st1" points="611,611 545,611 545,594.6 594.6,594.6 594.6,545 611,545 "/>
<polygon class="st1" points="611,66 594.6,66 594.6,16.4 545,16.4 545,0 611,0 "/>
</svg>
