<?xml version="1.0" encoding="UTF-8" standalone="no"?>
<!DOCTYPE svg PUBLIC "-//W3C//DTD SVG 1.1//EN" "http://www.w3.org/Graphics/SVG/1.1/DTD/svg11.dtd">
<svg width="100%" height="100%" viewBox="0 0 41 8" version="1.1" xmlns="http://www.w3.org/2000/svg" xmlns:xlink="http://www.w3.org/1999/xlink" xml:space="preserve" style="fill-rule:evenodd;clip-rule:evenodd;stroke-linejoin:round;stroke-miterlimit:1.41421;">
    <g id="Artboard2" transform="matrix(1,0,0,1,-22.123,-2)">
        <rect x="22.123" y="2" width="40.143" height="7.527" style="fill:none;"/>
        <g transform="matrix(1,0,0,1,0.407204,0.175082)">
            <rect id="Artboard1" x="0" y="0" width="66.528" height="17" style="fill:none;"/>
            <g>
                <g transform="matrix(1,0,0,1,0,2)">
                    <path d="M22.123,7.4L23.518,7.4L23.518,2.04L22.123,2.04L22.123,7.4ZM38.14,0.135L36.777,5.944L36.756,5.944L35.476,0.135L33.497,0.135L32.259,5.944L32.238,5.944L30.884,0.135L24.068,0.135L24.068,1.281L26.15,1.281L26.15,7.402L27.608,7.402L27.608,1.281L29.657,1.281L31.281,7.402L33.165,7.402L34.455,1.593L34.476,1.593L35.789,7.402L37.662,7.402L39.556,0.135L38.14,0.135ZM22.123,1.282L23.518,1.282L23.518,0.124L22.123,0.124L22.123,1.282Z" style="fill:white;fill-rule:nonzero;"/>
                </g>
                <g transform="matrix(1,0,0,1,0,2)">
                    <path d="M42.957,0C42.008,0 41.141,0.353 40.478,0.933L41.437,0.933L41.437,1.868C41.853,1.533 42.382,1.332 42.958,1.332C44.302,1.332 45.389,2.42 45.389,3.763C45.389,5.106 44.302,6.194 42.958,6.194C41.615,6.194 40.525,5.106 40.525,3.763C40.525,3.216 40.71,2.711 41.016,2.305L41.016,1.355L40.067,1.355C39.524,2.007 39.196,2.847 39.196,3.764C39.196,5.842 40.88,7.527 42.958,7.527C45.036,7.527 46.721,5.842 46.721,3.764C46.72,1.686 45.035,0 42.957,0" style="fill:white;fill-rule:nonzero;"/>
                </g>
                <g transform="matrix(1,0,0,1,0,2)">
                    <path d="M51.86,5.672L48.945,5.672L48.945,4.392L51.939,0.375L53.188,0.375L53.188,4.521L54.104,4.521L54.104,5.674L53.188,5.674L53.188,7.268L51.86,7.268L51.86,5.672ZM51.86,2.127L51.83,2.127L50.048,4.52L51.861,4.52L51.861,2.127L51.86,2.127Z" style="fill:rgb(205,206,207);fill-rule:nonzero;"/>
                    <rect x="54.853" y="5.75" width="1.545" height="1.518" style="fill:rgb(205,206,207);"/>
                    <path d="M59.726,0.237C61.105,0.237 62.266,1.103 62.266,3.791C62.266,6.539 61.105,7.405 59.726,7.405C58.358,7.405 57.205,6.539 57.205,3.791C57.205,1.103 58.357,0.237 59.726,0.237ZM59.726,6.252C60.869,6.252 60.869,4.568 60.869,3.791C60.869,3.073 60.869,1.39 59.726,1.39C58.594,1.39 58.605,3.074 58.605,3.791C58.604,4.569 58.604,6.252 59.726,6.252Z" style="fill:rgb(205,206,207);fill-rule:nonzero;"/>
                </g>
            </g>
        </g>
    </g>
</svg>
